<svg width="124" height="88" viewBox="0 0 124 88" fill="none" xmlns="http://www.w3.org/2000/svg">
<path d="M115.375 0H8.875C6.5212 0 4.26381 0.935042 2.59943 2.59943C0.935042 4.26381 0 6.5212 0 8.875V79.875C0 82.2288 0.935042 84.4862 2.59943 86.1506C4.26381 87.815 6.5212 88.75 8.875 88.75H115.375C117.729 88.75 119.986 87.815 121.651 86.1506C123.315 84.4862 124.25 82.2288 124.25 79.875V8.875C124.25 6.5212 123.315 4.26381 121.651 2.59943C119.986 0.935042 117.729 0 115.375 0ZM105.612 8.875L62.125 38.9613L18.6375 8.875H105.612ZM8.875 79.875V12.9131L59.5956 48.0137C60.3384 48.5291 61.2209 48.8052 62.125 48.8052C63.0291 48.8052 63.9116 48.5291 64.6544 48.0137L115.375 12.9131V79.875H8.875Z" fill="white"/>
</svg>
